<svg width="24.000000" height="24.000000" viewBox="0 0 24 24" fill="none" xmlns="http://www.w3.org/2000/svg" xmlns:xlink="http://www.w3.org/1999/xlink">
	<desc>
			Created with Pixso.
	</desc>
	<defs>
		<clipPath id="clip501_551">
			<rect id="24 / Close" rx="-0.500000" width="23.000000" height="23.000000" transform="translate(0.500000 0.500000)" fill="white" fill-opacity="0"/>
		</clipPath>
	</defs>
	<rect id="24 / Close" rx="-0.500000" width="23.000000" height="23.000000" transform="translate(0.500000 0.500000)" fill="#FFFFFF" fill-opacity="0"/>
	<g clip-path="url(#clip501_551)">
		<path id="Union" d="M6.29297 7.70703C5.90234 7.31641 5.90234 6.68359 6.29297 6.29297C6.68359 5.90234 7.31641 5.90234 7.70703 6.29297L12 10.5859L16.293 6.29297C16.6836 5.90234 17.3164 5.90234 17.707 6.29297C18.0977 6.68359 18.0977 7.31641 17.707 7.70703L13.4141 12L17.707 16.293C18.0977 16.6836 18.0977 17.3164 17.707 17.707C17.3164 18.0977 16.6836 18.0977 16.293 17.707L12 13.4141L7.70703 17.707C7.31641 18.0977 6.68359 18.0977 6.29297 17.707C5.90234 17.3164 5.90234 16.6836 6.29297 16.293L10.5859 12L6.29297 7.70703Z" clip-rule="evenodd" fill="#000000" fill-opacity="0.200000" fill-rule="evenodd"/>
	</g>
</svg>
