<svg width="24.000000" height="24.000000" viewBox="0 0 24 24" fill="none" xmlns="http://www.w3.org/2000/svg" xmlns:xlink="http://www.w3.org/1999/xlink">
	<desc>
			Created with Pixso.
	</desc>
	<defs>
		<clipPath id="clip6_492">
			<rect rx="-0.500000" width="23.000000" height="23.000000" transform="translate(0.500000 0.500000)" fill="white" fill-opacity="0"/>
		</clipPath>
	</defs>
	<rect rx="-0.500000" width="23.000000" height="23.000000" transform="translate(0.500000 0.500000)" fill="#FFFFFF" fill-opacity="0"/>
	<g clip-path="url(#clip6_492)">
		<path d="M12 0C8.73 0 8.33 0.01 7.05 0.07C5.77 0.13 4.9 0.33 4.14 0.62C3.35 0.93 2.67 1.34 2.01 2.01C1.34 2.68 0.93 3.35 0.62 4.14C0.33 4.9 0.13 5.77 0.07 7.05C0.01 8.33 0 8.74 0 12C0 15.25 0.01 15.66 0.07 16.94C0.13 18.22 0.33 19.09 0.62 19.85C0.93 20.64 1.34 21.31 2.01 21.98C2.67 22.65 3.35 23.06 4.14 23.37C4.9 23.66 5.77 23.86 7.05 23.92C8.33 23.98 8.73 24 12 24C15.26 24 15.66 23.98 16.94 23.92C18.22 23.86 19.09 23.66 19.85 23.37C20.64 23.06 21.32 22.65 21.98 21.98C22.65 21.31 23.06 20.65 23.37 19.85C23.66 19.09 23.86 18.22 23.92 16.94C23.98 15.66 24 15.25 24 12C24 8.74 23.98 8.33 23.92 7.05C23.86 5.77 23.66 4.9 23.37 4.14C23.06 3.35 22.65 2.68 21.98 2.01C21.32 1.34 20.65 0.93 19.85 0.62C19.09 0.33 18.22 0.13 16.94 0.07C15.66 0.01 15.26 0 12 0ZM12 2.16C15.2 2.16 15.58 2.17 16.85 2.23C18.01 2.28 18.65 2.47 19.07 2.64C19.64 2.86 20.03 3.12 20.46 3.54C20.87 3.96 21.13 4.36 21.35 4.92C21.51 5.34 21.71 5.97 21.76 7.14C21.82 8.41 21.83 8.79 21.83 12C21.83 15.2 21.82 15.58 21.76 16.85C21.7 18.02 21.5 18.65 21.34 19.07C21.11 19.63 20.86 20.03 20.44 20.45C20.02 20.87 19.62 21.13 19.06 21.35C18.64 21.51 18 21.71 16.82 21.76C15.55 21.82 15.17 21.83 11.96 21.83C8.75 21.83 8.38 21.82 7.1 21.76C5.94 21.7 5.29 21.5 4.87 21.34C4.3 21.11 3.91 20.86 3.49 20.44C3.07 20.02 2.8 19.62 2.59 19.06C2.42 18.64 2.23 17.99 2.17 16.82C2.13 15.56 2.11 15.18 2.11 11.98C2.11 8.78 2.13 8.39 2.17 7.12C2.23 5.95 2.42 5.31 2.59 4.89C2.8 4.31 3.07 3.93 3.49 3.5C3.91 3.08 4.3 2.81 4.87 2.61C5.29 2.44 5.92 2.25 7.09 2.18C8.37 2.14 8.74 2.12 11.95 2.12L12 2.16ZM12 5.83C8.59 5.83 5.83 8.59 5.83 12C5.83 15.4 8.59 18.16 12 18.16C15.4 18.16 18.16 15.4 18.16 12C18.16 8.59 15.4 5.83 12 5.83ZM12 16C9.78 16 8 14.21 8 12C8 9.79 9.78 8 12 8C14.21 8 16 9.79 16 12C16 14.21 14.21 16 12 16ZM19.84 5.59C19.84 6.39 19.19 7.03 18.4 7.03C17.6 7.03 16.96 6.38 16.96 5.59C16.96 4.8 17.61 4.15 18.4 4.15C19.19 4.15 19.84 4.8 19.84 5.59Z" fill="#5552E8" fill-opacity="1.000000" fill-rule="nonzero"/>
	</g>
</svg>
