<svg width="24.000000" height="24.000000" viewBox="0 0 24 24" fill="none" xmlns="http://www.w3.org/2000/svg" xmlns:xlink="http://www.w3.org/1999/xlink">
	<desc>
			Created with Pixso.
	</desc>
	<defs>
		<clipPath id="clip6_496">
			<rect rx="-0.500000" width="23.000000" height="23.000000" transform="translate(0.500000 0.500000)" fill="white" fill-opacity="0"/>
		</clipPath>
	</defs>
	<rect rx="-0.500000" width="23.000000" height="23.000000" transform="translate(0.500000 0.500000)" fill="#FFFFFF" fill-opacity="0"/>
	<g clip-path="url(#clip6_496)">
		<path d="M23.95 4.56C23.07 4.95 22.12 5.22 21.12 5.34C22.14 4.73 22.92 3.77 23.29 2.62C22.33 3.17 21.28 3.58 20.16 3.8C19.26 2.84 17.99 2.24 16.57 2.24C13.85 2.24 11.65 4.44 11.65 7.16C11.65 7.55 11.69 7.92 11.78 8.28C7.69 8.09 4.06 6.12 1.64 3.16C1.21 3.88 0.97 4.72 0.97 5.63C0.97 7.34 1.84 8.84 3.16 9.73C2.35 9.7 1.59 9.48 0.93 9.11L0.93 9.17C0.93 11.56 2.62 13.55 4.87 14C4.46 14.11 4.03 14.17 3.58 14.17C3.26 14.17 2.96 14.14 2.66 14.08C3.3 16.04 5.11 17.46 7.27 17.5C5.59 18.82 3.46 19.61 1.17 19.61C0.78 19.61 0.39 19.58 0 19.54C2.18 20.93 4.76 21.75 7.55 21.75C16.6 21.75 21.55 14.25 21.55 7.76C21.55 7.55 21.55 7.34 21.53 7.13C22.5 6.44 23.33 5.57 24 4.58L23.95 4.56Z" fill="#5552E8" fill-opacity="1.000000" fill-rule="nonzero"/>
	</g>
</svg>
