<svg width="24.000000" height="24.000000" viewBox="0 0 24 24" fill="none" xmlns="http://www.w3.org/2000/svg" xmlns:xlink="http://www.w3.org/1999/xlink">
	<desc>
			Created with Pixso.
	</desc>
	<defs>
		<clipPath id="clip6_500">
			<rect rx="-0.500000" width="23.000000" height="23.000000" transform="translate(0.500000 0.500000)" fill="white" fill-opacity="0"/>
		</clipPath>
	</defs>
	<rect rx="-0.500000" width="23.000000" height="23.000000" transform="translate(0.500000 0.500000)" fill="#FFFFFF" fill-opacity="0"/>
	<g clip-path="url(#clip6_500)">
		<path d="M23.05 19.3L20.43 19.3C19.44 19.3 19.13 18.51 17.35 16.7C15.8 15.2 15.11 15 14.73 15C14.2 15 14.04 15.15 14.04 15.89L14.04 18.25C14.04 18.89 13.84 19.27 12.16 19.27C9.39 19.27 6.31 17.59 4.14 14.46C0.89 9.88 0 6.45 0 5.73C0 5.35 0.15 5 0.89 5L3.51 5C4.17 5 4.42 5.3 4.68 6.01C5.98 9.75 8.14 13.04 9.03 13.04C9.36 13.04 9.51 12.88 9.51 12.05L9.51 8.18C9.41 6.39 8.47 6.24 8.47 5.61C8.47 5.3 8.73 5 9.13 5L13.25 5C13.81 5 14.01 5.3 14.01 5.96L14.01 11.18C14.01 11.74 14.27 11.94 14.42 11.94C14.75 11.94 15.03 11.74 15.64 11.13C17.53 9.02 18.88 5.76 18.88 5.76C19.05 5.38 19.36 5.02 20.02 5.02L22.64 5.02C23.43 5.02 23.61 5.43 23.43 5.99C23.1 7.51 19.89 12.04 19.89 12.04C19.62 12.5 19.51 12.7 19.89 13.22C20.17 13.6 21.09 14.39 21.7 15.1C22.82 16.37 23.69 17.44 23.92 18.18C24.17 18.91 23.79 19.3 23.05 19.3L23.05 19.3Z" fill="#5552E8" fill-opacity="1.000000" fill-rule="nonzero"/>
	</g>
</svg>
